<mxfile host="Electron" agent="Mozilla/5.0 (Windows NT 10.0; Win64; x64) AppleWebKit/537.36 (KHTML, like Gecko) draw.io/26.1.1 Chrome/132.0.6834.210 Electron/34.3.3 Safari/537.36" version="26.1.1">
  <diagram name="Page-1" id="i5qoQsWyBIGLFYLma18O">
    <mxGraphModel dx="780" dy="504" grid="1" gridSize="10" guides="1" tooltips="1" connect="1" arrows="1" fold="1" page="1" pageScale="1" pageWidth="827" pageHeight="1169" math="0" shadow="0">
      <root>
        <mxCell id="0" />
        <mxCell id="1" parent="0" />
        <mxCell id="SEYaLXHSMGwF21e5mzU8-11" value="" style="group;fontStyle=1" vertex="1" connectable="0" parent="1">
          <mxGeometry x="100" y="100" width="620" height="330" as="geometry" />
        </mxCell>
        <mxCell id="SEYaLXHSMGwF21e5mzU8-1" value="" style="swimlane;startSize=0;fontStyle=1" vertex="1" parent="SEYaLXHSMGwF21e5mzU8-11">
          <mxGeometry x="120" width="360" height="330" as="geometry" />
        </mxCell>
        <mxCell id="SEYaLXHSMGwF21e5mzU8-8" value="Gestion_inscription" style="shape=folder;fontStyle=1;spacingTop=10;tabWidth=40;tabHeight=14;tabPosition=left;html=1;whiteSpace=wrap;" vertex="1" parent="SEYaLXHSMGwF21e5mzU8-1">
          <mxGeometry x="60" y="50" width="130" height="50" as="geometry" />
        </mxCell>
        <mxCell id="SEYaLXHSMGwF21e5mzU8-9" value="Gestion_produit" style="shape=folder;fontStyle=1;spacingTop=10;tabWidth=40;tabHeight=14;tabPosition=left;html=1;whiteSpace=wrap;" vertex="1" parent="SEYaLXHSMGwF21e5mzU8-1">
          <mxGeometry x="70" y="130" width="130" height="50" as="geometry" />
        </mxCell>
        <mxCell id="SEYaLXHSMGwF21e5mzU8-10" value="Gestion_commande" style="shape=folder;fontStyle=1;spacingTop=10;tabWidth=40;tabHeight=14;tabPosition=left;html=1;whiteSpace=wrap;" vertex="1" parent="SEYaLXHSMGwF21e5mzU8-1">
          <mxGeometry x="64" y="220" width="130" height="50" as="geometry" />
        </mxCell>
        <mxCell id="SEYaLXHSMGwF21e5mzU8-12" value="Gestion_panier" style="shape=folder;fontStyle=1;spacingTop=10;tabWidth=40;tabHeight=14;tabPosition=left;html=1;whiteSpace=wrap;" vertex="1" parent="SEYaLXHSMGwF21e5mzU8-1">
          <mxGeometry x="230" y="190" width="120" height="50" as="geometry" />
        </mxCell>
        <mxCell id="SEYaLXHSMGwF21e5mzU8-2" value="Utilisateur" style="shape=umlActor;verticalLabelPosition=bottom;verticalAlign=top;html=1;outlineConnect=0;fontStyle=1" vertex="1" parent="SEYaLXHSMGwF21e5mzU8-11">
          <mxGeometry y="220" width="30" height="60" as="geometry" />
        </mxCell>
        <mxCell id="SEYaLXHSMGwF21e5mzU8-3" value="Visiteur" style="shape=umlActor;verticalLabelPosition=bottom;verticalAlign=top;html=1;outlineConnect=0;fontStyle=1" vertex="1" parent="SEYaLXHSMGwF21e5mzU8-11">
          <mxGeometry y="50" width="30" height="60" as="geometry" />
        </mxCell>
        <mxCell id="SEYaLXHSMGwF21e5mzU8-4" value="Admin" style="shape=umlActor;verticalLabelPosition=bottom;verticalAlign=top;html=1;outlineConnect=0;fontStyle=1" vertex="1" parent="SEYaLXHSMGwF21e5mzU8-11">
          <mxGeometry x="590" y="40" width="30" height="60" as="geometry" />
        </mxCell>
        <mxCell id="SEYaLXHSMGwF21e5mzU8-5" value="" style="endArrow=none;html=1;rounded=0;entryX=-0.006;entryY=0.629;entryDx=0;entryDy=0;entryPerimeter=0;fontStyle=1" edge="1" parent="SEYaLXHSMGwF21e5mzU8-11" target="SEYaLXHSMGwF21e5mzU8-1">
          <mxGeometry width="50" height="50" relative="1" as="geometry">
            <mxPoint x="50" y="260" as="sourcePoint" />
            <mxPoint x="100" y="210" as="targetPoint" />
          </mxGeometry>
        </mxCell>
        <mxCell id="SEYaLXHSMGwF21e5mzU8-6" value="" style="endArrow=none;html=1;rounded=0;entryX=-0.006;entryY=0.629;entryDx=0;entryDy=0;entryPerimeter=0;fontStyle=1" edge="1" parent="SEYaLXHSMGwF21e5mzU8-11">
          <mxGeometry width="50" height="50" relative="1" as="geometry">
            <mxPoint x="50" y="96" as="sourcePoint" />
            <mxPoint x="118" y="44" as="targetPoint" />
          </mxGeometry>
        </mxCell>
        <mxCell id="SEYaLXHSMGwF21e5mzU8-7" value="" style="endArrow=none;html=1;rounded=0;exitX=1;exitY=0.197;exitDx=0;exitDy=0;exitPerimeter=0;fontStyle=1" edge="1" parent="SEYaLXHSMGwF21e5mzU8-11" source="SEYaLXHSMGwF21e5mzU8-1">
          <mxGeometry width="50" height="50" relative="1" as="geometry">
            <mxPoint x="510" y="90" as="sourcePoint" />
            <mxPoint x="580" y="80" as="targetPoint" />
          </mxGeometry>
        </mxCell>
        <mxCell id="SEYaLXHSMGwF21e5mzU8-13" value="" style="endArrow=none;html=1;rounded=0;fontStyle=1" edge="1" parent="SEYaLXHSMGwF21e5mzU8-11">
          <mxGeometry width="50" height="50" relative="1" as="geometry">
            <mxPoint x="480" y="232" as="sourcePoint" />
            <mxPoint x="570" y="260" as="targetPoint" />
          </mxGeometry>
        </mxCell>
        <mxCell id="SEYaLXHSMGwF21e5mzU8-14" value="Systeme_payement" style="shape=umlActor;verticalLabelPosition=bottom;verticalAlign=top;html=1;" vertex="1" parent="SEYaLXHSMGwF21e5mzU8-11">
          <mxGeometry x="590" y="220" width="30" height="60" as="geometry" />
        </mxCell>
        <mxCell id="SEYaLXHSMGwF21e5mzU8-15" value="" style="html=1;verticalAlign=bottom;labelBackgroundColor=none;endArrow=none;endFill=0;endSize=6;align=left;rounded=0;" edge="1" parent="1">
          <mxGeometry x="-1" relative="1" as="geometry">
            <mxPoint x="700" y="330" as="sourcePoint" />
            <mxPoint x="710" y="330" as="targetPoint" />
          </mxGeometry>
        </mxCell>
      </root>
    </mxGraphModel>
  </diagram>
</mxfile>
